<?xml version="1.0" encoding="utf-8"?>
<!-- Generator: Adobe Illustrator 16.0.0, SVG Export Plug-In . SVG Version: 6.00 Build 0)  -->
<!DOCTYPE svg PUBLIC "-//W3C//DTD SVG 1.1//EN" "http://www.w3.org/Graphics/SVG/1.1/DTD/svg11.dtd">
<svg version="1.1" id="Layer_1" xmlns="http://www.w3.org/2000/svg" xmlns:xlink="http://www.w3.org/1999/xlink" x="0px" y="0px"
	 width="960px" height="705px" viewBox="0 0 960 705" enable-background="new 0 0 960 705" xml:space="preserve">
<path fill="#FFFFFF" d="M720.544,193.661c1.416,7.272-3.456,14.339-10.883,15.785l-247.09,48.125
	c-7.426,1.446-14.595-3.275-16.011-10.547L413.224,75.868c-1.416-7.271,3.457-14.339,10.883-15.786l247.09-48.125
	c7.426-1.447,14.595,3.275,16.011,10.546L720.544,193.661z"/>
<rect x="231.024" y="499.553" fill="none" stroke="#000000" stroke-miterlimit="10" width="0" height="0"/>
<path opacity="0.1" d="M237.046,597.62l-96.139,19.999c-5.527,1.147-9.088,6.584-7.938,12.112l13.309,63.978
	c1.147,5.526,6.58,9.084,12.109,7.934l96.14-19.995c5.524-1.147,9.089-6.583,7.939-12.107l-13.307-63.977
	C248.007,600.033,242.575,596.471,237.046,597.62z M212.068,646.646l31.244-41.148c0.191,0.371,0.351,0.764,0.441,1.189
	l13.306,63.979c0.09,0.429,0.098,0.848,0.07,1.263L212.068,646.646z M238.17,603.025c0.034-0.005,0.063-0.002,0.093-0.012
	l-36.958,48.678c-1.435,1.899-3.986,2.428-6.063,1.261l-53.302-29.898c0.033-0.008,0.061-0.021,0.095-0.028l96.136-19.995V603.025z
	 M152.119,693.771c-0.189-0.374-0.349-0.758-0.438-1.188l-13.308-63.977c-0.089-0.428-0.096-0.848-0.071-1.265l45.063,25.277
	L152.119,693.771z M157.262,696.237c-0.032,0.01-0.064,0.008-0.095,0.015l31.06-40.907l4.313,2.424
	c2.253,1.259,4.763,1.606,7.098,1.12c2.34-0.488,4.503-1.805,6.066-3.857l2.995-3.944l44.79,25.128
	c-0.029,0.006-0.061,0.021-0.089,0.028L157.262,696.237z"/>
<path opacity="0.3" d="M413.289,541.44l-118.513-25.282c-6.815-1.454-13.539,2.907-14.995,9.724l-16.823,78.87
	c-1.453,6.813,2.906,13.537,9.725,14.991l118.517,25.279c6.808,1.452,13.539-2.907,14.991-9.72l16.824-78.87
	C424.468,549.619,420.103,542.894,413.289,541.44z M360.679,584.36l55.766-30.909c0.029,0.514,0.017,1.031-0.097,1.565
	l-16.823,78.862c-0.114,0.532-0.312,1.01-0.551,1.468L360.679,584.36z M411.869,548.102c0.042,0.006,0.074,0.024,0.11,0.031
	l-65.963,36.566c-2.567,1.43-5.713,0.761-7.478-1.593l-45.303-60.299c0.042,0.009,0.082,0.007,0.117,0.016l118.515,25.282
	L411.869,548.102z M269.526,607.733c-0.028-0.519-0.019-1.035,0.095-1.562l16.823-78.863c0.114-0.534,0.313-1.011,0.548-1.47
	l38.303,50.978L269.526,607.733z M274.105,613.078c-0.041-0.01-0.078-0.025-0.115-0.03l55.437-30.732l3.664,4.883
	c1.919,2.543,4.578,4.188,7.457,4.804c2.885,0.61,5.987,0.199,8.773-1.345l5.344-2.958l38.066,50.673
	c-0.037-0.007-0.079-0.007-0.112-0.015L274.105,613.078z"/>
<path opacity="0.7" d="M810.168,295.484l-184.623-37.643c-10.617-2.165-21.014,4.714-23.18,15.33l-25.049,122.866
	c-2.161,10.612,4.712,21.006,15.336,23.175l184.62,37.637c10.608,2.162,21.016-4.715,23.176-15.319l25.051-122.867
	C827.664,308.045,820.781,297.649,810.168,295.484z M728.973,362.96l86.27-48.846c0.055,0.803,0.039,1.608-0.13,2.437
	l-25.048,122.855c-0.167,0.829-0.472,1.574-0.834,2.29L728.973,362.96z M808.054,305.863c0.066,0.01,0.114,0.037,0.172,0.047
	l-102.05,57.78c-3.966,2.26-8.867,1.264-11.646-2.374l-71.288-93.113c0.066,0.011,0.127,0.008,0.184,0.024l184.627,37.641
	L808.054,305.863z M587.57,400.576c-0.049-0.8-0.043-1.602,0.123-2.425l25.055-122.859c0.166-0.829,0.471-1.574,0.833-2.29
	l60.27,78.723L587.57,400.576z M594.765,408.822c-0.063-0.01-0.117-0.034-0.177-0.043l85.763-48.562l5.766,7.542
	c3.019,3.925,7.178,6.447,11.663,7.361c4.494,0.911,9.308,0.229,13.621-2.207l8.266-4.682l59.898,78.254
	c-0.059-0.009-0.124-0.009-0.172-0.025L594.765,408.822z"/>
<path opacity="0.5" d="M597.66,438.84l-159.993,23.938c-9.199,1.378-15.563,9.985-14.186,19.186l15.932,106.472
	c1.378,9.196,9.981,15.562,19.187,14.187l159.993-23.948c9.191-1.37,15.56-9.985,14.186-19.175l-15.933-106.474
	C615.472,443.825,606.86,437.463,597.66,438.84z M552.011,517.15l55.225-64.779c0.272,0.632,0.505,1.288,0.609,2.008l15.935,106.462
	c0.106,0.718,0.084,1.411,0,2.094L552.011,517.15z M599.011,447.834c0.051-0.016,0.101-0.007,0.15-0.016l-65.319,76.623
	c-2.536,2.99-6.787,3.631-10.094,1.51l-84.892-54.14c0.061-0.009,0.111-0.03,0.158-0.031l159.994-23.945L599.011,447.834z
	 M449.02,589.084c-0.274-0.638-0.506-1.283-0.613-1.999l-15.931-106.464c-0.11-0.722-0.081-1.413,0-2.092l71.768,45.765
	L449.02,589.084z M457.252,593.617c-0.057,0.01-0.105,0.01-0.158,0.021l54.891-64.403l6.872,4.39
	c3.588,2.275,7.684,3.091,11.57,2.503c3.896-0.584,7.58-2.544,10.337-5.778l5.291-6.218l71.338,45.508
	c-0.05,0.011-0.102,0.034-0.15,0.034L457.252,593.617z"/>
<path fill="#BFBFBF" d="M688.501,20L580.017,167.793c-4.698,5.963-12.871,7.497-19.424,3.631c0,0-155.188-95.916-155.092-95.924
	C405.5,75.5,688.406,20.022,688.501,20z"/>
<path fill="#FFFFFF" d="M687.052,11.696L576.312,147.435c-4.788,5.483-12.961,7.016-19.424,3.631c0,0-152.979-84.104-152.883-84.113
	C404.006,66.953,686.957,11.718,687.052,11.696z"/>
<path fill="#333333" d="M664.026,5.503L422.469,50.676c-13.889,2.597-23.076,16.013-20.479,29.903l30.064,160.752
	c2.598,13.884,16.01,23.065,29.908,20.472l241.55-45.178c13.878-2.595,23.076-16.013,20.48-29.889L693.93,25.979
	C691.334,12.089,677.914,2.908,664.026,5.503z M599.055,126.901l80.249-101.379c0.459,0.943,0.841,1.922,1.039,3.007l30.062,160.74
	c0.205,1.083,0.202,2.131,0.116,3.176L599.055,126.901z M666.57,19.082c0.081-0.019,0.154-0.01,0.229-0.027l-94.931,119.921
	c-3.686,4.679-10.098,5.882-15.239,2.849L424.775,64.325c0.087-0.019,0.16-0.054,0.235-0.061l241.558-45.175L666.57,19.082z
	 M446.672,241.782c-0.45-0.946-0.837-1.914-1.039-2.993L415.575,78.045c-0.207-1.084-0.201-2.134-0.117-3.178l111.477,65.525
	L446.672,241.782z M459.417,248.213c-0.085,0.017-0.159,0.016-0.237,0.035l79.778-100.787l10.672,6.28
	c5.573,3.26,11.835,4.268,17.702,3.17c5.88-1.107,11.36-4.293,15.377-9.359l7.689-9.712l110.795,65.14
	c-0.074,0.02-0.151,0.05-0.218,0.055L459.417,248.213z"/>
</svg>
